<?xml version="1.0" standalone="no"?>
<!DOCTYPE svg PUBLIC "-//W3C//DTD SVG 20010904//EN"
 "http://www.w3.org/TR/2001/REC-SVG-20010904/DTD/svg10.dtd">
<svg version="1.0" xmlns="http://www.w3.org/2000/svg"
 width="144.000000pt" height="144.000000pt" viewBox="0 0 144.000000 144.000000"
 preserveAspectRatio="xMidYMid meet">

<g transform="translate(0.000000,144.000000) scale(0.100000,-0.100000)"
fill="#000000" stroke="none">
<path d="M280 1401 c-8 -5 -68 -21 -132 -37 l-118 -28 0 -642 c0 -576 2 -642
16 -648 9 -3 72 -6 141 -6 l126 0 -7 224 -6 224 85 77 c47 43 88 76 90 73 3
-2 41 -130 85 -284 45 -153 83 -287 86 -296 5 -16 20 -18 125 -18 110 0 120 2
115 18 -3 9 -51 181 -106 382 -56 201 -103 372 -106 381 -3 11 51 78 162 199
91 100 164 183 162 185 -6 7 -212 85 -222 85 -6 0 -112 -96 -236 -214 l-225
-214 -3 266 c-1 147 -6 270 -10 274 -4 4 -14 3 -22 -1z"/>
<path d="M990 1406 c0 -6 58 -256 181 -776 33 -140 63 -262 66 -270 3 -9 9 4
14 30 23 119 141 931 137 936 -3 2 -86 20 -184 38 -99 19 -187 37 -196 41 -10
4 -18 4 -18 1z"/>
<path d="M1150 171 c-16 -33 -30 -64 -30 -68 0 -4 27 -25 60 -45 l60 -37 53
32 c28 17 53 32 54 32 2 1 -8 33 -20 71 l-24 69 -61 3 -61 3 -31 -60z"/>
</g>
</svg>
